<svg id="Layer_1" data-name="Layer 1" xmlns="http://www.w3.org/2000/svg" viewBox="0 0 318.79 467.27"><defs><style>.cls-1{fill:#e30613;}.cls-2{fill:#fff;}</style></defs><title>teb_technikum_pion_kontra</title><rect class="cls-1" width="318.79" height="467.27"/><path class="cls-2" d="M73,70.05H50.5V51.92h65.57V70.05H93.69v62.48H73Z"/><path class="cls-2" d="M125.93,51.92h58.82V69.44H146.62V82.86h37.29V100.5H146.62V115h38.13v17.52H125.93Z"/><path class="cls-2" d="M196.78,51.92h45.47c15.88,0,23.46,10.39,23.46,20.54S259.58,89.26,252,91c8.54,1.33,15.28,9.54,15.28,19.69,0,11.73-7.82,21.88-23.58,21.88H196.78ZM237.56,83.1a6.81,6.81,0,0,0,7.1-7,6.72,6.72,0,0,0-7.1-6.89H217.47V83.1Zm.72,32.15c4.94,0,7.94-3,7.94-7.37,0-4.11-2.88-7.62-7.94-7.62H217.47v15Z"/><path class="cls-2" d="M57,397.06H49.62v-4.77H69.81v4.77H62.45v20.66H57Z"/><path class="cls-2" d="M73.27,392.29H91.18v4.65H78.66v5.53H90.92v4.65H78.66V413H91.18v4.69H73.27Z"/><path class="cls-2" d="M94.18,405c0-7.82,5.89-13.16,13.29-13.16a11.66,11.66,0,0,1,10.77,6.22l-4.63,2.28a6.92,6.92,0,0,0-6.14-3.7c-4.41,0-7.75,3.55-7.75,8.36s3.34,8.35,7.75,8.35a6.85,6.85,0,0,0,6.14-3.7l4.63,2.25a11.74,11.74,0,0,1-10.77,6.25C100.07,418.18,94.18,412.84,94.18,405Z"/><path class="cls-2" d="M138.82,407.05h-12v10.67h-5.39V392.29h5.39v10h12v-10h5.42v25.43h-5.42Z"/><path class="cls-2" d="M154.61,400.64v17.08h-5.39V392.29h5.54l11.72,16.47V392.29h5.39v25.43h-5.2Z"/><path class="cls-2" d="M176.89,392.29h5.39v25.43h-5.39Z"/><path class="cls-2" d="M194.65,407.54l-2,2.37v7.81h-5.38V392.29h5.38v11.36l9-11.36h6.64l-10.06,11.93L209,417.72h-6.64Z"/><path class="cls-2" d="M211.42,392.29h5.47v15.1c0,3.55,1.93,6,5.88,6s5.81-2.44,5.81-6v-15.1H234v15.25c0,6.33-3.6,10.64-11.27,10.64s-11.35-4.35-11.35-10.6Z"/><path class="cls-2" d="M261.07,399.42l-7.14,18.3h-2.35l-7.14-18.3v18.3h-5.38V392.29h7.55l6.14,15.86,6.15-15.86h7.59v25.43h-5.42Z"/><path class="cls-2" d="M158.79,148.5v25.62h82.87v70.43H164.08L68.46,148.5h-18V262.67L158.79,371.53,267.15,262.67V148.5Zm0,186.8L75.93,252.06V192.23l77.58,77.94h70.12Z"/></svg>